<?xml version="1.0" encoding="utf-8"?>
<!-- Generator: Adobe Illustrator 23.0.1, SVG Export Plug-In . SVG Version: 6.00 Build 0)  -->
<svg version="1.1" xmlns="http://www.w3.org/2000/svg" xmlns:xlink="http://www.w3.org/1999/xlink" x="0px" y="0px"
	 viewBox="0 0 1125 2436" style="enable-background:new 0 0 1125 2436;" xml:space="preserve">
<style type="text/css">
	.st0{fill:none;}
	.st1{font-family:'Mitr-Bold';}
	.st2{font-size:1200px;}
</style>
<g id="bg">
	<rect y="2456" class="st0" width="1125" height="2436"/>
</g>
<g id="Layer_3">
	<text transform="matrix(1 0 0 1 130.5 4053.8032)" class="st1 st2">A</text>
</g>
<g id="Layer_1">
	<text transform="matrix(1 0 0 1 -3216.894 1597.8032)" class="st1 st2">E</text>
	<text transform="matrix(1 0 0 1 -3216.897 1597.8032)" class="st1 st2" style="fill:none;stroke:#25D660;stroke-miterlimit:10;">F</text>
	<rect x="1145" y="2456" class="st0" width="1125" height="2436"/>
	<text transform="matrix(1 0 0 1 -955.0923 4053.8032)" class="st1 st2">P</text>
	<text transform="matrix(1 0 0 1 -2179.8989 4053.8032)" class="st1 st2">O</text>
	<text transform="matrix(1 0 0 1 -3293.6978 4053.8032)" class="st1 st2">N</text>
	<text transform="matrix(1 0 0 1 1247.9053 1597.8032)" class="st1 st2">M</text>
	<text transform="matrix(1 0 0 1 -3257.0947 13877.8027)" class="st1 st2">Z</text>
	<text transform="matrix(1 0 0 1 1257.5 11421.8027)" class="st1 st2">Y</text>
	<text transform="matrix(1 0 0 1 102.3013 11421.8027)" class="st1 st2">X</text>
	<text transform="matrix(1 0 0 1 -1107.5 11421.8027)" class="st1 st2">W</text>
	<text transform="matrix(1 0 0 1 -2166.6968 11421.8027)" class="st1 st2">V</text>
	<text transform="matrix(1 0 0 1 -3302.0928 11421.8027)" class="st1 st2">U</text>
	<text transform="matrix(1 0 0 1 1369.707 8965.8027)" class="st1 st2">L</text>
	<text transform="matrix(1 0 0 1 159.3018 8965.8027)" class="st1 st2">K</text>
	<text transform="matrix(1 0 0 1 -894.5029 8965.8027)" class="st1 st2">J</text>
	<text transform="matrix(1 0 0 1 -1913.4985 8965.8027)" class="st1 st2">I</text>
	<text transform="matrix(1 0 0 1 -3249.3037 8965.8027)" class="st1 st2">T</text>
	<text transform="matrix(1 0 0 1 1338.5059 6509.8032)" class="st1 st2">S</text>
	<text transform="matrix(1 0 0 1 180.9082 6509.8032)" class="st1 st2">R</text>
	<text transform="matrix(1 0 0 1 -1034.8989 6509.8032)" class="st1 st2">Q</text>
	<text transform="matrix(1 0 0 1 -2143.2959 6509.8032)" class="st1 st2">D</text>
	<text transform="matrix(1 0 0 1 110.1011 13877.8027)" class="st1 st2">Ö</text>
	<text transform="matrix(1 0 0 1 -1033.6992 13877.8027)" class="st1 st2">Ä</text>
	<text transform="matrix(1 0 0 1 -2178.6992 13877.8027)" class="st1 st2">Å</text>
	<text transform="matrix(1 0 0 1 -3281.1001 6509.8032)" class="st1 st2">C</text>
	<text transform="matrix(1 0 0 1 1306.7007 4053.8032)" class="st1 st2">B</text>
	<text transform="matrix(1 0 0 1 125.7017 1597.8032)" class="st1 st2">H</text>
	
		<text transform="matrix(1 0 0 1 1247.7017 1597.8032)" class="st1 st2" style="fill:none;stroke:#25D660;stroke-width:2;stroke-miterlimit:10;">H</text>
	<text transform="matrix(1 0 0 1 -1007.2954 1597.8032)" class="st1 st2">G</text>
	
		<text transform="matrix(1 0 0 1 1278.7046 1597.8032)" class="st1 st2" style="fill:none;stroke:#174DFF;stroke-width:2;stroke-miterlimit:10;">G</text>
	<text transform="matrix(1 0 0 1 -2065.897 1597.8032)" class="st1 st2" style="fill:none;stroke:#BA7070;stroke-miterlimit:10;">F</text>
	<rect x="-3435" y="4912" class="st0" width="1125" height="2436"/>
	<rect x="-2290" y="4912" class="st0" width="1125" height="2436"/>
	<rect x="-3435" class="st0" width="1125" height="2436"/>
	<rect x="-2290" class="st0" width="1125" height="2436"/>
	<rect x="-1145" class="st0" width="1125" height="2436"/>
	<rect class="st0" width="1125" height="2436"/>
	<rect x="-1145" y="2455" class="st0" width="1125" height="2436"/>
	<rect x="-2290" y="2455" class="st0" width="1125" height="2436"/>
	<rect x="-3435" y="2455" class="st0" width="1125" height="2436"/>
	<rect x="1145" y="-1" class="st0" width="1125" height="2436"/>
	<rect x="1145" y="7367" class="st0" width="1125" height="2436"/>
	<rect y="7367" class="st0" width="1125" height="2436"/>
	<rect x="-1145" y="7367" class="st0" width="1125" height="2436"/>
	<rect x="-2290" y="7367" class="st0" width="1125" height="2436"/>
	<rect x="-1145" y="4912" class="st0" width="1125" height="2436"/>
	<rect y="4912" class="st0" width="1125" height="2436"/>
	<rect x="1145" y="4912" class="st0" width="1125" height="2436"/>
	<rect x="-3435" y="7368" class="st0" width="1125" height="2436"/>
	<rect x="-3435" y="9824" class="st0" width="1125" height="2436"/>
	<rect x="-2290" y="9824" class="st0" width="1125" height="2436"/>
	<rect x="-1145" y="9824" class="st0" width="1125" height="2436"/>
	<rect y="9824" class="st0" width="1125" height="2436"/>
	<rect x="1145" y="9824" class="st0" width="1125" height="2436"/>
	<rect x="-3435" y="12280" class="st0" width="1125" height="2436"/>
	<rect x="-2290" y="12280" class="st0" width="1125" height="2436"/>
	<rect x="-1145" y="12280" class="st0" width="1125" height="2436"/>
	<rect y="12280" class="st0" width="1125" height="2436"/>
</g>
</svg>
